<?xml version="1.0" encoding="UTF-8"?>
<svg xmlns="http://www.w3.org/2000/svg" xmlns:xlink="http://www.w3.org/1999/xlink" viewBox="0 0 813 573.9">
  <defs>
    <style>
      .cls-1 {
        fill: #46467f;
      }

      .cls-1, .cls-2, .cls-3, .cls-4, .cls-5, .cls-6, .cls-7, .cls-8 {
        stroke-width: 0px;
      }

      .cls-2 {
        fill: #d02f44;
      }

      .cls-2, .cls-6 {
        fill-rule: evenodd;
      }

      .cls-3 {
        fill: none;
      }

      .cls-4 {
        fill: #00247d;
      }

      .cls-9 {
        clip-path: url(#clippath-1);
      }

      .cls-5 {
        fill: #fff;
      }

      .cls-6 {
        fill: url(#linear-gradient);
      }

      .cls-7 {
        fill: #eee;
      }

      .cls-10 {
        clip-path: url(#clippath);
      }

      .cls-8 {
        fill: #cf1b2b;
      }

      .cls-11 {
        mask: url(#mask);
      }
    </style>
    <clipPath id="clippath">
      <path class="cls-3" d="m100.86,1.26h624.29c48.52,0,87.86,39.31,87.86,87.81v395.48c0,48.49-39.33,87.81-87.86,87.81H100.86c-48.52,0-87.86-39.31-87.86-87.81V89.07C13,40.57,52.34,1.26,100.86,1.26Z"/>
    </clipPath>
    <mask id="mask" x="13" y="1.26" width="800" height="571.1" maskUnits="userSpaceOnUse">
      <g id="mask0_503_3486" data-name="mask0 503 3486">
        <path class="cls-5" d="m70.15,1.26h685.71c31.56,0,57.14,25.57,57.14,57.11v456.88c0,31.54-25.58,57.11-57.14,57.11H70.15c-31.56,0-57.14-25.57-57.14-57.11V58.37C13,26.83,38.59,1.26,70.15,1.26Z"/>
      </g>
    </mask>
    <linearGradient id="linear-gradient" x1="-211.63" y1="813.25" x2="-211.63" y2="806.58" gradientTransform="translate(6231.03 23274.98) scale(28.57 -28.57)" gradientUnits="userSpaceOnUse">
      <stop offset="0" stop-color="#fff"/>
      <stop offset="1" stop-color="#f0f0f0"/>
    </linearGradient>
    <clipPath id="clippath-1">
      <polygon class="cls-3" points="813 9.98 0 573.9 813 570.86 813 9.98"/>
    </clipPath>
  </defs>
  <g id="Layer_1" data-name="Layer 1">
    <g class="cls-10">
      <g>
        <path class="cls-5" d="m70.15,1.26h685.71c31.56,0,57.14,25.57,57.14,57.11v456.88c0,31.54-25.58,57.11-57.14,57.11H70.15c-31.56,0-57.14-25.57-57.14-57.11V58.37C13,26.83,38.59,1.26,70.15,1.26Z"/>
        <g class="cls-11">
          <g>
            <path class="cls-2" d="m813,1.26H13v38.07h800V1.26Zm0,76.15H13v38.07h800v-38.07ZM13,153.55h800v38.07H13v-38.07Zm800,76.15H13v38.07h800v-38.07ZM13,305.85h800v38.07H13v-38.07Zm800,76.14H13v38.07h800v-38.07ZM13,458.14h800v38.07H13v-38.07Zm800,76.15H13v38.07h800v-38.07Z"/>
            <rect class="cls-1" x="13" y="1.26" width="342.86" height="266.51"/>
            <path class="cls-6" d="m89.19,58.37c0,10.51-8.53,19.04-19.05,19.04s-19.05-8.52-19.05-19.04,8.53-19.04,19.05-19.04,19.05,8.52,19.05,19.04Zm76.19,0c0,10.51-8.53,19.04-19.05,19.04s-19.05-8.52-19.05-19.04,8.53-19.04,19.05-19.04,19.05,8.52,19.05,19.04Zm57.14,19.04c10.52,0,19.05-8.52,19.05-19.04s-8.53-19.04-19.05-19.04-19.05,8.52-19.05,19.04,8.53,19.04,19.05,19.04Zm95.24-19.04c0,10.51-8.53,19.04-19.05,19.04s-19.05-8.52-19.05-19.04,8.53-19.04,19.05-19.04,19.05,8.52,19.05,19.04Zm-209.52,57.11c10.52,0,19.05-8.52,19.05-19.04s-8.53-19.04-19.05-19.04-19.05,8.52-19.05,19.04,8.53,19.04,19.05,19.04Zm95.24-19.04c0,10.51-8.53,19.04-19.05,19.04s-19.05-8.52-19.05-19.04,8.53-19.04,19.05-19.04,19.05,8.52,19.05,19.04Zm57.14,19.04c10.52,0,19.05-8.52,19.05-19.04s-8.53-19.04-19.05-19.04-19.05,8.52-19.05,19.04,8.53,19.04,19.05,19.04Zm57.14,19.04c0,10.51-8.53,19.04-19.05,19.04s-19.05-8.52-19.05-19.04,8.53-19.04,19.05-19.04,19.05,8.52,19.05,19.04Zm-95.24,19.04c10.52,0,19.05-8.52,19.05-19.04s-8.53-19.04-19.05-19.04-19.05,8.52-19.05,19.04,8.53,19.04,19.05,19.04Zm-57.14-19.04c0,10.51-8.53,19.04-19.05,19.04s-19.05-8.52-19.05-19.04,8.53-19.04,19.05-19.04,19.05,8.52,19.05,19.04Zm-95.24,19.04c10.52,0,19.05-8.52,19.05-19.04s-8.53-19.04-19.05-19.04-19.05,8.52-19.05,19.04,8.53,19.04,19.05,19.04Zm57.14,19.04c0,10.51-8.53,19.04-19.05,19.04s-19.05-8.52-19.05-19.04,8.53-19.04,19.05-19.04,19.05,8.52,19.05,19.04Zm57.14,19.04c10.52,0,19.05-8.52,19.05-19.04s-8.53-19.04-19.05-19.04-19.05,8.52-19.05,19.04,8.53,19.04,19.05,19.04Zm95.24-19.04c0,10.51-8.53,19.04-19.05,19.04s-19.05-8.52-19.05-19.04,8.53-19.04,19.05-19.04,19.05,8.52,19.05,19.04Zm19.05,57.11c10.52,0,19.05-8.52,19.05-19.04s-8.53-19.04-19.05-19.04-19.05,8.52-19.05,19.04,8.53,19.04,19.05,19.04Zm-57.14-19.04c0,10.51-8.53,19.04-19.05,19.04s-19.05-8.52-19.05-19.04,8.53-19.04,19.05-19.04,19.05,8.52,19.05,19.04Zm-95.24,19.04c10.52,0,19.05-8.52,19.05-19.04s-8.53-19.04-19.05-19.04-19.05,8.52-19.05,19.04,8.53,19.04,19.05,19.04Zm-57.14-19.04c0,10.51-8.53,19.04-19.05,19.04s-19.05-8.52-19.05-19.04,8.53-19.04,19.05-19.04,19.05,8.52,19.05,19.04Z"/>
          </g>
        </g>
      </g>
    </g>
  </g>
  <g id="Layer_2" data-name="Layer 2">
    <g class="cls-9">
      <g>
        <path class="cls-4" d="m13,89.41v86.81h125.07L13,89.41Zm103.64,483.29h185.24v-128.57l-185.24,128.57Zm407.47-128.55v128.55h185.22l-185.22-128.55ZM13,396.48v86.81l125.11-86.81H13ZM709.38,0h-185.27v128.57L709.38,0Zm103.62,483.31v-86.83h-125.13l125.13,86.83Zm0-307.1v-86.81l-125.09,86.81h125.09ZM301.89,0H116.64l185.24,128.57V0Z"/>
        <path class="cls-8" d="m571.66,396.48l215.82,149.81c10.54-10.76,18.12-24.03,22-38.53l-160.33-111.28h-77.49Zm-269.78,0h-47.58l-215.8,149.78c11.58,11.67,26.42,20.02,43.07,23.9l220.31-152.91v-20.77Zm222.22-220.27h47.58L787.49,26.43c-11.78-11.84-26.7-20.13-43.04-23.9l-220.33,152.91v20.77Zm-269.8,0L38.51,26.43c-10.53,10.77-18.12,24.03-22.02,38.53l160.33,111.26h77.49Z"/>
        <path class="cls-7" d="m813,352.43h-333.33v220.27h44.44v-128.55l185.22,128.55h14.78c23.85,0,46.7-9.52,63.38-26.41l-215.82-149.81h77.49l160.33,111.28c2.07-7.42,3.51-15.11,3.51-23.17v-1.28l-125.13-86.83h125.13v-44.05Zm-800,0v44.05h125.11L13,483.29v1.3c0,24.03,9.76,45.77,25.51,61.68l215.8-149.78h47.58v20.77l-220.31,152.89c6.53,1.54,13.29,2.56,20.31,2.56h14.76l185.24-128.57v128.57h44.44v-220.27H13ZM813,88.11c.01-23.08-9.15-45.24-25.51-61.68l-215.8,149.78h-47.58v-20.77L744.44,2.53C737.79.91,730.96.06,724.11,0h-14.73l-185.27,128.57V0h-44.44v220.27h333.33v-44.05h-125.09l125.09-86.81v-1.3ZM301.89,0v128.57L116.64,0h-14.76c-23.86-.01-46.71,9.52-63.38,26.43l215.8,149.78h-77.49L16.49,64.96c-2.2,7.53-3.38,15.31-3.49,23.15v1.3l125.07,86.81H13v44.05h333.33V0h-44.44Z"/>
        <path class="cls-8" d="m479.66,220.27V0h-133.33v220.27H13v132.16h333.33v220.27h133.33v-220.27h333.33v-132.16h-333.33Z"/>
      </g>
    </g>
  </g>
</svg>